<svg xmlns="http://www.w3.org/2000/svg" width="379.684" height="278.282" viewBox="0 0 379.684 278.282">
  <g id="Groupe_124" data-name="Groupe 124" transform="translate(-208.021 -2663.714)">
    <g id="Groupe_117" data-name="Groupe 117" transform="translate(-453 359)">
      <g id="Groupe_114" data-name="Groupe 114" transform="translate(594.863 2187.855)">
        <path id="Tracé_184" data-name="Tracé 184" d="M180.089,163.573a16.453,16.453,0,0,1,11.677,4.839q.492.492.933,1.013l-11.2,22.341a90.95,90.95,0,0,0,0,128.468l11.221,22.317q-.451.534-.955,1.038a16.51,16.51,0,0,1-23.355,0,124.006,124.006,0,0,1,0-175.177,16.452,16.452,0,0,1,11.678-4.839Z" fill="#b89ff0"/>
        <path id="Tracé_185" data-name="Tracé 185" d="M133.371,116.859a16.459,16.459,0,0,1,11.677,4.839c.188.188.37.378.547.573l-14.1,22.781c-61.169,61.177-61.169,160.718,0,221.9l14.107,22.769q-.27.3-.558.585a16.51,16.51,0,0,1-23.355,0c-74.048-74.052-74.048-194.552,0-268.605a16.466,16.466,0,0,1,11.677-4.837Z" fill="#b79ff0"/>
        <path id="Tracé_186" data-name="Tracé 186" d="M148.645,256a107.222,107.222,0,0,0,44.076,86.551,16.5,16.5,0,0,0-.955-22.317,90.95,90.95,0,0,1,0-128.468,16.528,16.528,0,0,0,.933-22.342A107.251,107.251,0,0,0,148.645,256Z" fill="#946da4"/>
        <path id="Tracé_187" data-name="Tracé 187" d="M82.581,256a173.161,173.161,0,0,0,63.026,133.717,16.5,16.5,0,0,0-.558-22.769c-61.169-61.177-61.169-160.718,0-221.9a16.522,16.522,0,0,0,.547-22.782A173.172,173.172,0,0,0,82.581,256Z" fill="#946da3"/>
        <path id="Tracé_190" data-name="Tracé 190" d="M331.911,348.427a16.453,16.453,0,0,1-11.677-4.839q-.492-.492-.933-1.013l11.2-22.342a90.95,90.95,0,0,0,0-128.468l-11.221-22.317q.451-.534.955-1.038a16.51,16.51,0,0,1,23.355,0,124.006,124.006,0,0,1,0,175.177,16.449,16.449,0,0,1-11.678,4.84Z" fill="#b89ff0"/>
        <path id="Tracé_191" data-name="Tracé 191" d="M378.629,395.141a16.46,16.46,0,0,1-11.677-4.839c-.188-.188-.37-.378-.547-.573l14.1-22.782c61.169-61.177,61.169-160.718,0-221.9l-14.107-22.769q.27-.3.558-.585a16.51,16.51,0,0,1,23.355,0c74.048,74.052,74.048,194.552,0,268.605a16.463,16.463,0,0,1-11.677,4.838Z" fill="#b89ff0"/>
        <path id="Tracé_192" data-name="Tracé 192" d="M363.355,256a107.221,107.221,0,0,0-44.076-86.551,16.5,16.5,0,0,0,.955,22.317,90.95,90.95,0,0,1,0,128.468,16.528,16.528,0,0,0-.933,22.342A107.251,107.251,0,0,0,363.355,256Z" fill="#a466bc"/>
        <path id="Tracé_193" data-name="Tracé 193" d="M429.419,256a173.161,173.161,0,0,0-63.026-133.717,16.5,16.5,0,0,0,.558,22.769c61.169,61.177,61.169,160.718,0,221.9a16.522,16.522,0,0,0-.547,22.782A173.172,173.172,0,0,0,429.419,256Z" fill="#a167b9"/>
      </g>
    </g>
    <g id="Groupe_121" data-name="Groupe 121" transform="translate(415.609 2801.31)">
      <path id="Tracé_209" data-name="Tracé 209" d="M59.382.411a57.334,57.334,0,0,1,58,58,59.669,59.669,0,0,1-58.971,58.971,57.334,57.334,0,0,1-58-58A59.669,59.669,0,0,1,59.382.411Z" transform="translate(-101.027 1.545) rotate(-45)" fill="#bed9fd"/>
      <path id="Tracé_194" data-name="Tracé 194" d="M118.22,140.107a59.794,59.794,0,0,1,3.024,18.841c0,32.569-25.969,58.971-58,58.971A57.847,57.847,0,0,1,12.481,187.5c7.732,23.329,29.426,40.13,54.98,40.13,32.035,0,58-26.4,58-58.971A59.468,59.468,0,0,0,118.22,140.107Z" transform="translate(-85.193 -167.114)" fill="#9ec8fc"/>
      <path id="Tracé_195" data-name="Tracé 195" d="M56.095,162.705l-24.8-6.263a3.857,3.857,0,0,1-2.888-3.755v-4.45a3.908,3.908,0,0,1,.829-2.411L31,143.572a3.763,3.763,0,0,1,5.483-.5l4.025,3.584a3.493,3.493,0,0,0,5.441-1.026A3.635,3.635,0,0,0,45.787,142l-7.861-12.249a4.129,4.129,0,0,1-.527-3.229l6.3-25.184a2.838,2.838,0,0,0,.085-.69V97.925a2.775,2.775,0,0,0-2.752-2.8H15.053A59.3,59.3,0,0,0,0,134.762c0,.431.007.859.016,1.288l17.022,10.365a3.882,3.882,0,0,1,1.85,3.319v10.535a3.854,3.854,0,0,0,3.043,3.79l14.6,3.033a3.985,3.985,0,0,1,3.147,3.92,4.045,4.045,0,0,0,.777,2.386l3.238,4.43a12.461,12.461,0,0,1,2.392,7.351v7.306a57.435,57.435,0,0,0,26.971-.759l5.1-6.89a14.139,14.139,0,0,0,2.761-8.4v-3.94a4.705,4.705,0,0,0-4.666-4.744H60.52A2.537,2.537,0,0,1,58,165.188a2.551,2.551,0,0,0-1.91-2.483Z" transform="translate(-75.737 -133.216)" fill="#6fbbc6"/>
      <path id="Tracé_196" data-name="Tracé 196" d="M221.869,435.884a14.128,14.128,0,0,0,2.738-7.636,57.311,57.311,0,0,1-34.921,6.292c.2,1.474.083,1.965.117,8.994a57.591,57.591,0,0,0,11.922,1.249h.024a57.457,57.457,0,0,0,15.025-2.008Z" transform="translate(-219.457 -384.267)" fill="#61aab8"/>
    </g>
    <g id="Groupe_122" data-name="Groupe 122" transform="translate(380.681 2745.681)">
      <path id="Tracé_210" data-name="Tracé 210" d="M76.929,23.782c6.238,14.632-8.519,36.213-24,42.11,0,0,1.224,1.538,8.045,7.242-15.476,5.9-38.3-8.054-44.539-22.688,0,0-1.627,1.157-7.659,7.607-6.238-14.632,8.519-36.213,24-42.11,0,0-1.224-1.538-8.045-7.242,15.476-5.9,38.3,8.054,44.539,22.688Z" transform="translate(0.438 0.36)" fill="#b89ff0" fill-rule="evenodd"/>
      <path id="Tracé_211" data-name="Tracé 211" d="M32,8.586C43.427,12.3,54.384,21.473,58.415,30.929l7.659-7.607c6.238,14.632-8.519,36.213-24,42.11,0,0,1.224,1.538,8.045,7.242C44.648,74.761,38.253,74.362,32,72.33V8.586Z" transform="translate(11.293 0.819)" fill="#a466bc" fill-rule="evenodd"/>
      <path id="Tracé_212" data-name="Tracé 212" d="M65.831,35.78c0,10.518-14.791,19.057-25.915,19.057,0,0,0,2.722,2.879,8.167C31.67,63,22.638,49.02,22.638,38.5c0,0-2.879,0-8.638,2.722,0-10.518,14.791-19.057,25.915-19.057L37.036,14c11.125,0,20.156,13.984,20.156,24.5Z" transform="translate(3.378 2.775)" fill="#9f8ec6" fill-rule="evenodd"/>
      <path id="Tracé_213" data-name="Tracé 213" d="M32,14.229c9.763,2.119,17.277,14.6,17.277,24.19L57.915,35.7c0,10.518-14.791,19.057-25.915,19.057,0,0,0,2.722,2.879,8.167A13.545,13.545,0,0,1,32,62.61Z" transform="translate(11.293 2.857)" fill="#814c96" fill-rule="evenodd"/>
      <path id="Tracé_216" data-name="Tracé 216" d="M10.078,0A9.815,9.815,0,0,1,20.156,9.529a9.815,9.815,0,0,1-10.078,9.529A9.815,9.815,0,0,1,0,9.529,9.815,9.815,0,0,1,10.078,0Z" transform="translate(33.215 31.748)" fill="#977bd4"/>
      <path id="Tracé_214" data-name="Tracé 214" d="M32,25a9.82,9.82,0,0,1,10.078,9.529A9.82,9.82,0,0,1,32,44.057Z" transform="translate(11.293 6.748)" fill="#5e366d" fill-rule="evenodd"/>
      <path id="Tracé_215" data-name="Tracé 215" d="M78.7,23.633a1.421,1.421,0,0,0-1.064-.829,1.492,1.492,0,0,0-1.313.4L70.144,29.34C65.77,20.95,56.4,13.016,46.291,9.028,38.909,6.116,31.149,5.314,24.631,7.8A1.378,1.378,0,0,0,23.75,8.83a1.319,1.319,0,0,0,.465,1.25c3.484,2.913,5.472,4.706,6.575,5.754C21.87,19.944,13.423,28.841,9.184,38.443c-3.08,6.979-3.928,14.316-1.3,20.478a1.423,1.423,0,0,0,1.091.833,1.487,1.487,0,0,0,1.322-.44c3.081-3.294,4.977-5.174,6.086-6.217C20.729,61.532,30.14,69.518,40.3,73.526c7.382,2.912,15.142,3.713,21.66,1.229a1.378,1.378,0,0,0,.881-1.032,1.319,1.319,0,0,0-.465-1.25C58.887,69.561,56.9,67.768,55.8,66.72,64.717,62.61,73.164,53.713,77.4,44.111c3.08-6.979,3.928-14.316,1.3-20.478Zm-1.948,3.09c1.4,5.075.423,10.829-2.01,16.34C70.5,52.67,61.807,61.57,52.833,64.99a1.389,1.389,0,0,0-.848.9,1.3,1.3,0,0,0,.236,1.183s1.015,1.3,6.374,5.866C53.25,74.224,47.2,73.3,41.4,71.013,31.242,67,21.829,58.781,18.213,50.3a1.414,1.414,0,0,0-.949-.8,1.506,1.506,0,0,0-1.251.223s-1.375.96-6.2,6.026c-1.363-5.053-.386-10.773,2.033-16.253,4.24-9.608,12.938-18.507,21.912-21.927a1.389,1.389,0,0,0,.848-.9,1.3,1.3,0,0,0-.236-1.183s-1.015-1.3-6.374-5.866c5.344-1.289,11.394-.365,17.191,1.922C55.344,15.55,64.757,23.773,68.374,32.257a1.425,1.425,0,0,0,1.065.828,1.49,1.49,0,0,0,1.313-.4l6-5.962ZM70.648,38.554a1.342,1.342,0,0,0-.6-1.1,1.512,1.512,0,0,0-1.3-.188l-6.829,2.152a30.831,30.831,0,0,0-8.561-17.976c-3.622-3.647-8.119-6.025-12.951-6.025a1.47,1.47,0,0,0-1.168.565,1.3,1.3,0,0,0-.2,1.226l2.276,6.456A34.35,34.35,0,0,0,22.31,31.755C18.453,35.18,15.938,39.431,15.938,44a1.347,1.347,0,0,0,.682,1.158,1.513,1.513,0,0,0,1.4.059,30.513,30.513,0,0,1,6.616-2.377,30.746,30.746,0,0,0,8.585,18.276c3.622,3.647,8.119,6.025,12.951,6.025A1.461,1.461,0,0,0,47.4,66.5a1.3,1.3,0,0,0,.062-1.324,26.871,26.871,0,0,1-2.514-6.255A34.3,34.3,0,0,0,64.276,50.8c3.857-3.425,6.372-7.676,6.372-12.244ZM67.579,40.5A15.479,15.479,0,0,1,62.3,48.814,30.7,30.7,0,0,1,43.293,56.25a1.4,1.4,0,0,0-1.44,1.361s-.042,2.2,1.944,6.568a16.922,16.922,0,0,1-8.476-4.928c-4.758-4.79-7.865-11.973-7.865-17.975a1.4,1.4,0,0,0-1.44-1.361s-2.324-.039-6.947,1.838a15.708,15.708,0,0,1,5.212-8.014A30.7,30.7,0,0,1,43.293,26.3a1.47,1.47,0,0,0,1.168-.565,1.3,1.3,0,0,0,.2-1.226l-2.186-6.2A16.726,16.726,0,0,1,51.265,23.3c4.758,4.79,7.865,11.973,7.865,17.975a1.342,1.342,0,0,0,.6,1.1,1.512,1.512,0,0,0,1.3.188ZM43.293,30.387c-6.356,0-11.518,4.88-11.518,10.89s5.161,10.89,11.518,10.89,11.518-4.88,11.518-10.89S49.65,30.387,43.293,30.387Zm0,2.722a8.418,8.418,0,0,1,8.638,8.167,8.418,8.418,0,0,1-8.638,8.167,8.418,8.418,0,0,1-8.638-8.167A8.418,8.418,0,0,1,43.293,33.109Z" transform="translate(0)" fill-rule="evenodd"/>
    </g>
  </g>
</svg>
